<svg xmlns="http://www.w3.org/2000/svg" width="25.139" height="21.504" viewBox="0 0 25.139 21.504">
  <g id="Group_100544" data-name="Group 100544" transform="matrix(0.985, -0.174, 0.174, 0.985, -0.014, 4.323)">
    <g id="Group_100549" data-name="Group 100549" transform="translate(-0.31 -0.443)">
      <path id="Path_27304" data-name="Path 27304" d="M2.432,3.016C2.077,3.7,1.78,17.43,1.995,17.7s18.095.25,19.1-.211a12.024,12.024,0,0,0,3.344-3.422c.132-.473-.207-12.224-.743-12.738S8.156,1,7.672,1.041,2.786,2.33,2.432,3.016Z" transform="translate(-1.559 -0.754)" fill="#dabd9c"/>
      <g id="Group_100548" data-name="Group 100548" transform="translate(0 0)">
        <g id="Group_100550" data-name="Group 100550" transform="translate(0 0)">
          <g id="Group_100546" data-name="Group 100546" style="mix-blend-mode: multiply;isolation: isolate">
            <g id="Group_100545" data-name="Group 100545">
              <g id="Group_100551" data-name="Group 100551">
                <path id="Path_27316" data-name="Path 27316" d="M48.548.614,46.439,2.106c-.312.22-.013.739.3.516L48.85,1.13c.311-.22.013-.739-.3-.516" transform="translate(-26.836 0.031)" fill="#444"/>
                <path id="Path_27325" data-name="Path 27325" d="M48.548.614,46.439,2.106c-.312.22-.013.739.3.516L48.85,1.13c.311-.22.013-.739-.3-.516" transform="translate(-26.595 14.033)" fill="#444"/>
                <path id="Path_27326" data-name="Path 27326" d="M2.24.055.132,1.546c-.312.22-.013.739.3.516L2.542.57c.311-.22.013-.739-.3-.516" transform="translate(1.065 0) rotate(8)" fill="#444"/>
                <path id="Path_27317" data-name="Path 27317" d="M20.25,18.5a34.84,34.84,0,0,0,.1-6.13c-.01-1.662-.03-3.324-.071-4.985-.025-1.014-.057-2.027-.109-3.04a.306.306,0,0,0-.3-.3C15.1,3.9,10.321,3.889,5.547,3.976q-2.022.037-4.045.1a.3.3,0,0,0,0,.6c4.516-.129,9.035-.188,13.552-.131q1.7.022,3.409.066c.257.007.514.017.772.022.688.01.315-.2.36.2.049.437.037.891.051,1.331.057,1.734.083,3.47.1,5.205a39.229,39.229,0,0,1-.071,6.982c-.067.376.509.538.577.159" transform="translate(-0.459 -1.934)" fill="#444"/>
                <path id="Path_27323" data-name="Path 27323" d="M20.25,18.5a34.84,34.84,0,0,0,.1-6.13c-.01-1.662-.03-3.324-.071-4.985-.025-1.014-.057-2.027-.109-3.04a.306.306,0,0,0-.3-.3C15.1,3.9,10.321,3.889,5.547,3.976q-2.022.037-4.045.1a.3.3,0,0,0,0,.6c4.516-.129,9.035-.188,13.552-.131q1.7.022,3.409.066c.257.007.514.017.772.022.688.01.315-.2.36.2.049.437.037.891.051,1.331.057,1.734.083,3.47.1,5.205a39.229,39.229,0,0,1-.071,6.982c-.067.376.509.538.577.159" transform="translate(2.283 -3.914)" fill="#444"/>
                <path id="Path_27324" data-name="Path 27324" d="M1.387,4.146A41.737,41.737,0,0,0,1.3,10.573q.013,2.614.065,5.226c.023,1.063.052,2.125.1,3.187a.3.3,0,0,0,.274.313c4.377.161,8.424-.121,12.8-.213,1.236-.026,4.643-.27,5.88-.311.352-.011.354-.638,0-.627-4.141.135-9.516.532-13.658.472-1.042-.015-2.691.127-3.733.1-.236-.007-.472-.018-.708-.023-.631-.011-.289.214-.33-.209-.045-.458-.033-.934-.046-1.4-.052-1.818-.076-3.638-.091-5.457a47,47,0,0,1,.065-7.319c.062-.394-.467-.564-.529-.167" transform="translate(-1.213 -1.513)" fill="#444"/>
                <path id="Path_27318" data-name="Path 27318" d="M19.247,12.6c-3.32,2.134-6.632,4.264-10.027,6.276a15.187,15.187,0,0,0-2.682,1.586c-.366.349-.321.1-.092.284a1.237,1.237,0,0,1-.146-.267A5.266,5.266,0,0,0,5.951,20c-.4-.52-.865-1-1.234-1.482a.382.382,0,0,1-.037.239A18.38,18.38,0,0,1,7.694,16.77c1.691-1.06,3.417-2.063,5.158-3.04q1.311-.735,2.633-1.45.642-.348,1.285-.693a5.833,5.833,0,0,0,.675-.361c.348-.253.493-.139.224-.271.53.26.837,1.16,1.21,1.624a3.335,3.335,0,0,1,.26.434.3.3,0,0,0,.516-.3,13.328,13.328,0,0,0-1.616-2.239.3.3,0,0,0-.362-.046c-2.261,1.2-4.515,2.423-6.735,3.7q-1.661.956-3.291,1.964c-.926.576-2.509,1.239-3.189,2.092-.231.289-.325.216-.262.632.119.792,1.441,1.583,1.772,2.328a.3.3,0,0,0,.409.107q5.267-3.038,10.371-6.333l2.8-1.8c.323-.207.023-.725-.3-.516" transform="translate(-2.195 -5.717)" fill="#444"/>
                <path id="Path_27319" data-name="Path 27319" d="M17.927,10.706c-3.023.02-6.05-.107-9.07.068-.7.041-2.019-.137-2.648.257-.536.335-.405.748-.408,1.356-.007,1.873-.027,3.747,0,5.62a.3.3,0,0,0,.6,0,42.789,42.789,0,0,1,0-6.393c.016-.089-.046.014.018-.027,0,0,1.125-.122,1.6-.159,3.3-.256,6.611-.1,9.916-.126a.3.3,0,0,0,0-.6" transform="translate(-3.134 -5.889)" fill="#444"/>
                <path id="Path_27320" data-name="Path 27320" d="M11.271,24.927c3.59,0,7.181,0,10.771,0a.3.3,0,0,0,.3-.3q.132-3.334.235-6.668c.012-.385-.586-.384-.6,0q-.08,2.592-.177,5.183a5.048,5.048,0,0,1-.05,1.287c-.087.244.413-.15-.022-.1a2.551,2.551,0,0,1-.478,0c-.351-.031-.718,0-1.07,0H15.939q-2.334,0-4.668,0a.3.3,0,0,0,0,.6" transform="translate(-6.173 -9.978)" fill="#444"/>
                <path id="Path_27321" data-name="Path 27321" d="M6.124,19.45q3.1-.048,6.206.066c.384.014.384-.584,0-.6q-3.1-.114-6.206-.066a.3.3,0,0,0,0,.6" transform="translate(-3.163 -10.66)" fill="#444"/>
                <path id="Path_27322" data-name="Path 27322" d="M20.561,29.093q3.612.015,7.225.071a.3.3,0,0,0,0-.6q-3.612-.056-7.225-.071a.3.3,0,0,0,0,.6" transform="translate(-11.607 -16.309)" fill="#444"/>
              </g>
            </g>
          </g>
        </g>
      </g>
    </g>
  </g>
</svg>
