<svg xmlns="http://www.w3.org/2000/svg" width="22.14" height="31.568" viewBox="0 0 22.14 31.568">
  <g id="Group_100543" data-name="Group 100543" transform="translate(-0.001 0)">
    <g id="Group_100553" data-name="Group 100553" transform="translate(0.001 0)">
      <path id="Path_27281" data-name="Path 27281" d="M12.209,20.327a4.791,4.791,0,0,0,.1,1.929.291.291,0,1,0,.56-.154,4.145,4.145,0,0,1-.1-1.621.3.3,0,0,0-.2-.357.294.294,0,0,0-.357.2" transform="translate(-2.735 -4.525)" fill="#444"/>
      <path id="Path_27282" data-name="Path 27282" d="M15.087,19.906q.007.738.013,1.477l0,.212a.291.291,0,0,0,.581,0l-.014-1.477c0-.071,0-.142,0-.212a.291.291,0,1,0-.581,0" transform="translate(-3.395 -4.412)" fill="#444"/>
      <path id="Path_27283" data-name="Path 27283" d="M5.915,2C3.154,3.676,2.722,7.515,3.89,10.283a8.8,8.8,0,0,0,7.652,5.439A8.246,8.246,0,0,0,19.516,10.4a7.115,7.115,0,0,0,.026-4.758,8.568,8.568,0,0,0-2.589-3.749A8.046,8.046,0,0,0,11.966,0,8.95,8.95,0,0,0,6.307,1.859c-.293.225,0,.73.293.5a8.084,8.084,0,0,1,9.008-.722,7.509,7.509,0,0,1,3.681,7.288,7.511,7.511,0,0,1-6.234,6.115A8,8,0,0,1,5.073,11.3,7.473,7.473,0,0,1,3.887,6.536,5.287,5.287,0,0,1,6.209,2.5c.319-.195.027-.7-.294-.5" transform="translate(-0.739 0)" fill="#444"/>
      <path id="Path_27284" data-name="Path 27284" d="M11.122,12.937a2.59,2.59,0,0,0,2.64,2.1,2.608,2.608,0,0,0,2.352-2.377c.028-.373-.553-.371-.581,0a2.011,2.011,0,0,1-1.831,1.8,2.019,2.019,0,0,1-2.018-1.68c-.061-.368-.621-.212-.56.154" transform="translate(-2.502 -2.786)" fill="#444"/>
      <path id="Path_27285" data-name="Path 27285" d="M8.905,9.265c.009-.015.018-.029.027-.043s.045-.059.022-.033.015-.016.019-.019a.4.4,0,0,1,.035-.037,1.148,1.148,0,0,1,.085-.078c-.022.018-.019.013,0,0l.053-.035c.033-.02.067-.038.1-.055s.028-.01,0,0c.016-.005.033-.012.049-.017a.9.9,0,0,1,.111-.03c.006,0,.06-.012.024-.005s.038,0,.038,0a.942.942,0,0,1,.1,0c.008,0,.079.005.04,0s.02,0,.026,0a1.181,1.181,0,0,1,.115.029l.05.017c.022.008.03.012,0,0,.036.017.071.035.105.055l.044.028c.017.011.048.034.016.009a1,1,0,0,1,.166.167.291.291,0,0,0,.411,0,.3.3,0,0,0,0-.411,1.316,1.316,0,0,0-1.106-.478A1.358,1.358,0,0,0,8.4,8.971a.291.291,0,1,0,.5.294" transform="translate(-1.883 -1.873)" fill="#444"/>
      <path id="Path_27286" data-name="Path 27286" d="M18.1,9.419a1.117,1.117,0,0,1,.18-.114c.005,0,.053-.025.022-.012s.018-.006.024-.008a.862.862,0,0,1,.108-.033c.02,0,.108-.019.047-.012a.911.911,0,0,1,.112-.007.875.875,0,0,1,.1,0c.006,0,.059.009.023,0s.034.008.034.008a.952.952,0,0,1,.092.025l.045.016c.029.011.019.009,0,0,.06.031.116.066.175.1.036.022-.049-.043.007.005l.036.031q.035.033.067.067l.031.036c.036.04-.012-.022.005.007s.04.059.057.09a.291.291,0,0,0,.5-.293,1.336,1.336,0,0,0-1.96-.412.3.3,0,0,0-.1.4.294.294,0,0,0,.4.1" transform="translate(-3.973 -1.947)" fill="#444"/>
      <path id="Path_27287" data-name="Path 27287" d="M9.485,26.517Q9.342,29.98,9.2,33.442c-.016.374.566.374.581,0q.143-3.462.287-6.926c.016-.374-.566-.374-.581,0" transform="translate(-2.07 -5.902)" fill="#444"/>
      <path id="Path_27288" data-name="Path 27288" d="M17.4,26.124q.131,1.844.321,3.683c.063.6.129,1.2.2,1.8a4.084,4.084,0,0,0,.377,1.45c.174.331.676.037.5-.294a4.38,4.38,0,0,1-.345-1.557q-.1-.835-.182-1.67-.173-1.706-.294-3.416c-.026-.371-.608-.374-.581,0" transform="translate(-3.916 -5.814)" fill="#444"/>
      <path id="Path_27289" data-name="Path 27289" d="M9.253,22.336a15.6,15.6,0,0,0-5.532,2.838c-.819.622-1.6,1.289-2.37,1.975C.76,27.676-.265,28.4.065,29.325a1.677,1.677,0,0,0,.7.768,16.246,16.246,0,0,0,1.611.925c.474.248.958.49,1.453.7a3.643,3.643,0,0,1,1.266.563c.38.386.127,1.128.638,1.439.608.372,1.205-.391,1.251-.931a2.658,2.658,0,0,0-1.268-2.365c-.462-.291-.976-.492-1.455-.752-.637-.346-1.272-.7-1.908-1.046v.5a42.513,42.513,0,0,1,5.422-3.383c.332-.174.038-.676-.293-.5a42.513,42.513,0,0,0-5.422,3.383.3.3,0,0,0,0,.5c.808.443,1.606.915,2.436,1.315a2.966,2.966,0,0,1,1.78,1.538,1.988,1.988,0,0,1,.132.606c0,.148-.092.691-.343.629-.13-.031-.153-.383-.179-.512a1.451,1.451,0,0,0-.8-1.131,7.464,7.464,0,0,0-.866-.327,12.134,12.134,0,0,1-1.306-.6q-.6-.307-1.19-.649c-.353-.205-.983-.467-1.1-.894-.128-.455.36-.831.66-1.105q.479-.438.969-.865C2.9,26.556,3.574,26,4.273,25.481A14.9,14.9,0,0,1,9.407,22.9a.291.291,0,0,0-.154-.56" transform="translate(-0.001 -5.022)" fill="#444"/>
      <path id="Path_27290" data-name="Path 27290" d="M16.257,22.4a10.156,10.156,0,0,1,4.32,2c1.418,1.018,2.744,2.155,4.066,3.292a1.948,1.948,0,0,1,.438.4.735.735,0,0,1-.182.78,3.9,3.9,0,0,1-.878.735A15.329,15.329,0,0,1,21.9,30.817c-.483.226-1.125.277-1.387.8a2.473,2.473,0,0,0-.18.781c-.014.1-.022.408-.177.429-.243.033-.282-.58-.289-.717a2.722,2.722,0,0,1,.216-1.422,1.877,1.877,0,0,1,.857-.684,28.268,28.268,0,0,1,2.632-1.156.3.3,0,0,0,.069-.532l-6.3-3.379c-.329-.177-.624.326-.294.5l6.3,3.379c.023-.177.047-.354.069-.531a28.056,28.056,0,0,0-2.828,1.243,2.123,2.123,0,0,0-1.266,1.719c-.084.653-.167,1.767.574,2.094a.677.677,0,0,0,.739-.088c.281-.253.241-.7.3-1.046.1-.546.464-.575.924-.752a10.142,10.142,0,0,0,1.258-.622,6.868,6.868,0,0,0,2.3-1.7,1.431,1.431,0,0,0,.323-.935c-.044-.446-.448-.708-.762-.977-.859-.739-1.72-1.473-2.607-2.178-1.76-1.4-3.685-2.861-5.967-3.206-.366-.056-.523.5-.154.56" transform="translate(-3.611 -4.912)" fill="#444"/>
      <path id="Path_27291" data-name="Path 27291" d="M9.52,21.937A6.023,6.023,0,0,0,6.264,23.4a37.766,37.766,0,0,0-3.38,2.781,11.678,11.678,0,0,0,3.066,2.3l1.336-1.51c-.022,1.709.167,3.413.167,5.113a19.5,19.5,0,0,0,.329,3.572c1,.088,2,.174,3,.219a35.321,35.321,0,0,0,3.613-.023c.971-.055,2.823-.305,2.823-.305a20.784,20.784,0,0,1-.591-2.587,25.325,25.325,0,0,1-.262-3.729c0-.636.007-1.272.022-1.907.012-.505.183.066.066-.425a4.8,4.8,0,0,1,.189-.453,9.975,9.975,0,0,1,1.587,1.814c.482-.877,1.372-1.352,2.306-2.192C17.019,22.1,15.17,21.9,13.467,21.836a3.311,3.311,0,0,1-3.854.217" transform="translate(-0.65 -4.912)" fill="#00b261"/>
      <path id="Path_27292" data-name="Path 27292" d="M10.02,21.9A5.043,5.043,0,0,0,5.95,22.989a17.089,17.089,0,0,0-3.234,3.078.3.3,0,0,0,0,.412,17.1,17.1,0,0,0,2.537,2.261c.267.2.591-.233.352-.457.2.183-.064.236.1.082.061-.057.112-.131.171-.191.153-.158.319-.3.488-.446.253-.215.515-.418.779-.621.291-.226,0-.73-.294-.5-.4.306-.8.609-1.166.949-.25.229-.882.774-.489,1.141l.352-.457a16.406,16.406,0,0,1-2.419-2.171v.412a17.013,17.013,0,0,1,2.951-2.87,4.677,4.677,0,0,1,3.788-1.145.291.291,0,0,0,.154-.56" transform="translate(-0.594 -4.902)" fill="#444"/>
      <path id="Path_27293" data-name="Path 27293" d="M16.751,22.17a4.678,4.678,0,0,1,3.788,1.145,17.009,17.009,0,0,1,2.951,2.869v-.411a16.456,16.456,0,0,1-2.42,2.171l.353.456c.392-.367-.239-.911-.489-1.141-.37-.339-.77-.643-1.166-.949-.3-.228-.586.277-.294.5.263.2.525.406.779.621.167.143.333.288.488.446a2.235,2.235,0,0,0,.171.191c.169.136-.115.119.1-.082-.236.221.082.654.353.457A17.147,17.147,0,0,0,23.9,26.184a.3.3,0,0,0,0-.411A17.065,17.065,0,0,0,20.668,22.7,5.044,5.044,0,0,0,16.6,21.61a.291.291,0,0,0,.154.56" transform="translate(-3.688 -4.836)" fill="#444"/>
      <path id="Path_27294" data-name="Path 27294" d="M8.34,27.843c.03,3.623-.023,5.662-.087,9.286a.3.3,0,0,0,.291.291,87.209,87.209,0,0,0,9.872-.059.3.3,0,0,0,.281-.368,39.776,39.776,0,0,1-.58-5.813c-.064-1.463-.115-2.927-.137-4.39a.291.291,0,0,0-.581,0,62.578,62.578,0,0,0,.738,10.358l.28-.367a87.207,87.207,0,0,1-9.872.059l.291.291c.064-3.623.117-5.662.087-9.286a.291.291,0,0,0-.581,0" transform="translate(-1.86 -5.963)" fill="#444"/>
      <path id="Path_27295" data-name="Path 27295" d="M11.265,27.486l.571.93h.547v-.375h-.289l-.515-.836.561-.547h.243v-.375H11.4v.369h.2L11,27.259v-.607h.261v-.369h-.915v.375h.238v1.383h-.238v.375h.915v-.375H11v-.295Z" transform="translate(-2.327 -5.912)" fill="#fff"/>
      <path id="Path_27296" data-name="Path 27296" d="M14.155,28.277h-.207v-1.1h-.616v.346h.213v.752h-.213v.34h.823Z" transform="translate(-3 -6.114)" fill="#fff"/>
      <path id="Path_27297" data-name="Path 27297" d="M16.046,27.519h.22l-.158.562-.3-.76H15.53l-.3.76-.158-.562h.188v-.34h-.772v.346h.21l.344,1.146h.284l.328-.8.328.8h.284l.343-1.146h.211v-.346h-.772Z" transform="translate(-3.259 -6.114)" fill="#fff"/>
      <path id="Path_27298" data-name="Path 27298" d="M18.469,28.277v-1.1h-.616v.346h.213v.752h-.213v.34h.823v-.34Z" transform="translate(-4.017 -6.114)" fill="#fff"/>
      <path id="Path_27299" data-name="Path 27299" d="M18.032,26.572a.256.256,0,0,0,.168.141.266.266,0,0,0,.326-.206.25.25,0,0,0-.021-.147.269.269,0,0,0-.068-.09.251.251,0,0,0-.1-.051.266.266,0,0,0-.326.206.25.25,0,0,0,.021.147" transform="translate(-4.052 -5.896)" fill="#fff"/>
      <path id="Path_27300" data-name="Path 27300" d="M13.563,26.646a.257.257,0,0,0,.182.075.263.263,0,0,0,.264-.256.254.254,0,0,0-.075-.181.259.259,0,0,0-.182-.075.263.263,0,0,0-.264.256.252.252,0,0,0,.057.155c.007.008.01.018.018.026" transform="translate(-3.035 -5.896)" fill="#fff"/>
      <path id="Path_27301" data-name="Path 27301" d="M13.886,31.155a.773.773,0,0,1-.58.266.69.69,0,0,1-.706-.72.679.679,0,0,1,.69-.714.61.61,0,0,1,.337.077.3.3,0,0,0-.016.1.248.248,0,0,0,.27.253.263.263,0,0,0,.257-.284c0-.254-.321-.529-.839-.529a1.092,1.092,0,0,0-1.128,1.1,1.072,1.072,0,0,0,1.135,1.1,1.162,1.162,0,0,0,.86-.369l.018-.02-.278-.286Z" transform="translate(-2.739 -6.658)" fill="#fff"/>
      <path id="Path_27302" data-name="Path 27302" d="M15.717,30.511a.741.741,0,0,0-.769.745.732.732,0,0,0,.769.745.741.741,0,0,0,.77-.745.733.733,0,0,0-.77-.745m0,1.146a.4.4,0,1,1,.357-.4.364.364,0,0,1-.357.4" transform="translate(-3.364 -6.863)" fill="#fff"/>
      <path id="Path_27303" data-name="Path 27303" d="M11.415,21.812c-.047.851,1.094,1.186,1.761,1.161a3.786,3.786,0,0,0,2.16-.94.293.293,0,0,0,0-.412.3.3,0,0,0-.411,0,3.316,3.316,0,0,1-1.582.758,1.821,1.821,0,0,1-.855-.089c-.2-.075-.506-.228-.492-.478.021-.374-.561-.373-.581,0" transform="translate(-2.568 -4.844)" fill="#444"/>
    </g>
  </g>
</svg>
