<svg xmlns="http://www.w3.org/2000/svg" width="27.051" height="31.883" viewBox="0 0 27.051 31.883">
  <g id="Group_100542" data-name="Group 100542" transform="translate(0)">
    <g id="Group_100552" data-name="Group 100552" transform="translate(0 0)">
      <path id="Path_27257" data-name="Path 27257" d="M13.428,19.171l-3.345,1.368a5.262,5.262,0,0,1-2.508.666c-1.189-.148-3.32-2.564-4.16-.884-1.933,3.959,4.757,4.324,7.067,3.659a.746.746,0,0,1,.434-.039c.238.078.32.368.355.615.3,2.2-.416,4.538.356,6.624a.989.989,0,0,0,.373.541,1.091,1.091,0,0,0,.516.111l7.666.385a.923.923,0,0,0,.773-.2.91.91,0,0,0,.148-.593q.044-3.448-.135-6.893l2.856,4.625a3.747,3.747,0,0,0,1.148,1.332,1.288,1.288,0,0,0,1.623-.145,1.858,1.858,0,0,0,.008-1.785c-.778-2.153-1.24-4.508-2.464-6.475a6.727,6.727,0,0,0-3.264-2.842,2.7,2.7,0,0,0-1.241-.194c-1.3.156-1.964,1.509-3.156,1.882-1.038.323-2.623-.142-2.834-1.369" transform="translate(-0.377 -2.284)" fill="#f7cf1c"/>
      <path id="Path_27258" data-name="Path 27258" d="M14.7.674c-3.046,1.358-4.559,4.86-4.576,8.048-.019,3.554,3.055,6.137,6.364,6.746a8.4,8.4,0,0,0,8.336-3.177c1.925-2.571,2.582-6.607.611-9.351A7.334,7.334,0,0,0,20.817.31c-1.969-.407-4.192-.557-6,.473a.33.33,0,0,0,.333.569,7.554,7.554,0,0,1,5-.5A7.94,7.94,0,0,1,24.22,2.567c2.336,2.115,2.08,5.952.631,8.484a7.69,7.69,0,0,1-7.2,3.9c-2.85-.17-6.217-2.021-6.777-5.053-.6-3.248,1.065-7.276,4.156-8.653.387-.174.051-.743-.334-.571" transform="translate(-1.224 0)" fill="#444"/>
      <path id="Path_27259" data-name="Path 27259" d="M15.883,17.672v.97a.33.33,0,1,0,.66,0v-.97a.33.33,0,1,0-.66,0" transform="translate(-1.915 -2.08)" fill="#444"/>
      <path id="Path_27260" data-name="Path 27260" d="M21.132,18.72a12.1,12.1,0,0,1,3.149,1.32A7.141,7.141,0,0,1,26.553,23,25.049,25.049,0,0,1,28.89,30.4c.065.419.7.241.636-.175a25.568,25.568,0,0,0-2.585-7.906,7.224,7.224,0,0,0-2.256-2.8,12.516,12.516,0,0,0-3.378-1.434c-.406-.128-.58.51-.175.636" transform="translate(-2.517 -2.167)" fill="#444"/>
      <path id="Path_27261" data-name="Path 27261" d="M14.711,18.634c-1.86-.539-3.35.8-4.7,1.859a2.191,2.191,0,0,1-1.39.681,4.22,4.22,0,0,1-1.479-.555,17.3,17.3,0,0,1-2.559-1.559c-.344-.251-.673.321-.334.57a17.344,17.344,0,0,0,2.56,1.559,3.169,3.169,0,0,0,2.543.524,11.545,11.545,0,0,0,2.216-1.618,3.457,3.457,0,0,1,2.971-.824.33.33,0,0,0,.175-.636" transform="translate(-0.501 -2.221)" fill="#444"/>
      <path id="Path_27262" data-name="Path 27262" d="M3.844,19.207a11.417,11.417,0,0,0-.9,1.667,1.36,1.36,0,0,0-.027,1.4,6.7,6.7,0,0,0,1.25,1.163,11.3,11.3,0,0,0,1.4,1.03,5.374,5.374,0,0,0,3.183.872,5.49,5.49,0,0,0,2.983-1.413c.329-.271-.14-.736-.466-.467a4.754,4.754,0,0,1-2.517,1.221,4.651,4.651,0,0,1-2.72-.7,13.788,13.788,0,0,1-2.252-1.75c-.2-.177-.388-.317-.382-.6a2,2,0,0,1,.275-.765,11.326,11.326,0,0,1,.745-1.321c.231-.358-.34-.689-.569-.334" transform="translate(-0.336 -2.286)" fill="#444"/>
      <path id="Path_27263" data-name="Path 27263" d="M27.184,33.21a2.948,2.948,0,0,0,2.68-.662.33.33,0,0,0-.466-.467,2.259,2.259,0,0,1-2.038.493.33.33,0,1,0-.175.636" transform="translate(-3.241 -3.837)" fill="#444"/>
      <path id="Path_27264" data-name="Path 27264" d="M26.78,31.864c-.989-2.8-2.6-5.445-2.909-8.445-.043-.419-.7-.423-.66,0,.317,3.075,1.918,5.753,2.932,8.62.141.4.778.227.636-.175" transform="translate(-2.793 -2.772)" fill="#444"/>
      <path id="Path_27265" data-name="Path 27265" d="M12.324,23.554q-.069,4.029-.138,8.059a.33.33,0,0,0,.66,0q.069-4.03.138-8.059a.33.33,0,0,0-.66,0" transform="translate(-1.471 -2.787)" fill="#444"/>
      <path id="Path_27266" data-name="Path 27266" d="M12.276,32.8a29.314,29.314,0,0,0,9.413.742c.488-.041,1.114.005,1.241-.581a4.144,4.144,0,0,0-.034-1.01q-.029-.61-.05-1.22-.088-2.541-.025-5.084a.33.33,0,0,0-.66,0c-.033,1.424-.036,2.848,0,4.271q.028,1.118.085,2.236a1.694,1.694,0,0,1,.027.508c-.065.194-.188.173-.389.2-.352.052-.719.059-1.075.078a28.792,28.792,0,0,1-8.359-.78c-.412-.1-.589.536-.175.636" transform="translate(-1.454 -3.038)" fill="#444"/>
      <path id="Path_27269" data-name="Path 27269" d="M3.45,19.09a1.744,1.744,0,0,0-.838-1.325,1.663,1.663,0,0,0-1.544-.051,1.871,1.871,0,0,0-.987,1.34A1.96,1.96,0,0,0,.417,20.8a2.661,2.661,0,0,0,1.748.906.341.341,0,0,0,.406-.231.333.333,0,0,0-.231-.407A2.092,2.092,0,0,1,.9,20.358a1.518,1.518,0,0,1-.032-1.582,1.049,1.049,0,0,1,1.072-.563,1.044,1.044,0,0,1,.847.877.34.34,0,0,0,.33.33.332.332,0,0,0,.33-.33" transform="translate(-0.01 -2.105)" fill="#444"/>
      <path id="Path_27270" data-name="Path 27270" d="M26.924,33.441a2.942,2.942,0,0,1-.02.639,1.305,1.305,0,0,0,.144.724,1.8,1.8,0,0,0,.561.525,2.733,2.733,0,0,0,.671.367,1.475,1.475,0,0,0,1.334-.209,1.753,1.753,0,0,0,.649-1.27,5.064,5.064,0,0,0,.018-.749,2.037,2.037,0,0,0-.2-.886.33.33,0,1,0-.57.334A2.226,2.226,0,0,1,29.621,34a1.287,1.287,0,0,1-.316.891.823.823,0,0,1-.783.189,1.8,1.8,0,0,1-.5-.268,1.392,1.392,0,0,1-.391-.324.809.809,0,0,1-.058-.52,2.732,2.732,0,0,0-.011-.7.333.333,0,0,0-.406-.231.337.337,0,0,0-.231.406" transform="translate(-3.236 -3.889)" fill="#444"/>
      <path id="Path_27271" data-name="Path 27271" d="M14.672,8.093c.051-.038.111-.061.162-.1-.055.04-.04.016-.011.006l.049-.017c.031-.009.062-.013.092-.021s-.085.007-.015,0l.042,0a.84.84,0,0,1,.094,0c.055,0,.011.006-.015,0,.012,0,.028,0,.041.008.034.007.067.018.1.027s-.014,0-.024-.011a.226.226,0,0,0,.044.021c.026.013.051.027.076.043l.032.022c.055.038-.04-.036-.012-.01s.043.039.064.06l.033.036c.018.02.031.055-.009-.013.015.025.033.048.048.073a.378.378,0,0,0,.04.077c-.008-.006-.026-.07-.011-.025.006.018.013.037.018.055a.33.33,0,1,0,.636-.176,1.214,1.214,0,0,0-.742-.782,1.169,1.169,0,0,0-1.068.154.362.362,0,0,0-.151.2.33.33,0,0,0,.485.372" transform="translate(-1.71 -0.876)" fill="#444"/>
      <path id="Path_27272" data-name="Path 27272" d="M23.379,10.639c-.08.062.018-.008.041-.021l.045-.023c.061-.033-.071.023-.005,0,.032-.01.063-.02.1-.028a.411.411,0,0,0,.059-.012c-.024.009-.073.008-.018,0a.921.921,0,0,1,.11,0c.017,0,.033,0,.05,0,.042,0-.077-.015-.018,0a.952.952,0,0,1,.106.028c.048.016.011.005-.014-.009.018.011.037.018.055.026s.055.033.083.052c.057.037-.054-.05,0,0l.036.033c.026.026.047.055.072.08-.019-.019-.04-.053-.011-.011a.41.41,0,0,1,.026.041c.01.017.019.034.028.052s.03.065.008.014,0,0,0,.016.012.037.018.056.008.032.011.048c.011.054,0,.005,0-.02,0,.04.006.078.005.118a.33.33,0,1,0,.66,0,1.179,1.179,0,0,0-.62-1.055,1.157,1.157,0,0,0-.635-.124,1.244,1.244,0,0,0-.655.27.326.326,0,0,0-.1.233.335.335,0,0,0,.1.233.331.331,0,0,0,.233.1.387.387,0,0,0,.233-.1" transform="translate(-2.746 -1.187)" fill="#444"/>
      <path id="Path_27273" data-name="Path 27273" d="M20.547,17.669v.679a.341.341,0,0,0,.1.233.33.33,0,0,0,.563-.233v-.679a.341.341,0,0,0-.1-.233.33.33,0,0,0-.563.233" transform="translate(-2.474 -2.08)" fill="#444"/>
      <path id="Path_27274" data-name="Path 27274" d="M25.565,15.654a5.406,5.406,0,0,0,2.22,4.521c.318.231.79.587,1.2.386a.614.614,0,0,0,.307-.5,7.47,7.47,0,0,0,.1-.816,4.626,4.626,0,0,0-.642-2.827,3.14,3.14,0,0,0-2.4-1.469c-.424-.026-.422.635,0,.66,1.546.094,2.347,1.7,2.391,3.076q.008.28-.01.56a4.741,4.741,0,0,0-.071.641c.011.127-.062.023.065.07a.3.3,0,0,1-.087-.03,1.987,1.987,0,0,0-.211-.121,4.133,4.133,0,0,1-.412-.285,4.791,4.791,0,0,1-1.294-1.6,4.628,4.628,0,0,1-.492-2.271c.017-.425-.643-.424-.66,0" transform="translate(-3.076 -1.794)" fill="#444"/>
      <path id="Path_27275" data-name="Path 27275" d="M24.587,15.669a1.5,1.5,0,0,0,1.84-.7.33.33,0,1,0-.569-.334c-.016.032-.033.063-.051.093l-.026.04c-.007.011-.042.057-.009.013s0,0-.011.011-.026.029-.039.043-.046.045-.07.066l-.037.032c-.03.026.061-.043.013-.011-.03.02-.059.04-.089.058s-.056.032-.085.046a.226.226,0,0,0-.044.021c.055-.041.043-.018.006,0a1.319,1.319,0,0,1-.186.053.3.3,0,0,0-.057.01c.022-.008.076-.008.02,0-.033,0-.064,0-.1,0s-.071,0-.106,0c-.013,0-.072-.007-.013,0s0,0-.013,0a1.04,1.04,0,0,1-.2-.062.327.327,0,0,0-.254.033.334.334,0,0,0-.151.2.34.34,0,0,0,.231.406" transform="translate(-2.93 -1.736)" fill="#444"/>
      <path id="Path_27276" data-name="Path 27276" d="M11.134,5.391a30.8,30.8,0,0,0,6.588-.406,12.347,12.347,0,0,0,5.965-3.019c.312-.289-.155-.754-.467-.466a11.754,11.754,0,0,1-5.838,2.881,30.777,30.777,0,0,1-6.247.349.33.33,0,0,0,0,.66" transform="translate(-1.307 -0.169)" fill="#444"/>
      <path id="Path_27277" data-name="Path 27277" d="M24.95,1.645A12.25,12.25,0,0,0,26.75,10c.225.359.8.028.57-.334a11.554,11.554,0,0,1-1.735-7.847c.063-.415-.573-.594-.636-.175" transform="translate(-2.986 -0.169)" fill="#444"/>
      <path id="Path_27278" data-name="Path 27278" d="M9.626,11.611a2.75,2.75,0,0,0-2.418,1.608A4.743,4.743,0,0,0,7.218,16.8a.335.335,0,0,0,.6.079,13.677,13.677,0,0,1,1.023-1.393c.367-.4.795-.742,1.126-1.176a1.746,1.746,0,0,0-.128-2.562c-.351-.241-.682.331-.334.569a.874.874,0,0,1,.278.935,2.458,2.458,0,0,1-.72,1.083,10.778,10.778,0,0,0-.94.983c-.309.4-.588.816-.877,1.227l.6.079a4.206,4.206,0,0,1-.106-3.013,2.12,2.12,0,0,1,1.877-1.343.33.33,0,0,0,0-.66" transform="translate(-0.832 -1.393)" fill="#444"/>
      <path id="Path_27279" data-name="Path 27279" d="M16.116,12.572a1.285,1.285,0,0,0,.268,1.148,1.884,1.884,0,0,0,1.009.593,1.728,1.728,0,0,0,1.88-.558.333.333,0,0,0-.119-.451.337.337,0,0,0-.451.119.528.528,0,0,1-.081.089s-.078.063-.038.034q-.034.024-.071.045c-.024.015-.049.027-.074.04l-.031.015c.021-.009.021-.009,0,0a1.359,1.359,0,0,1-.183.054,1.514,1.514,0,0,1-.619-.013,1.352,1.352,0,0,1-.674-.341.624.624,0,0,1-.18-.6.33.33,0,0,0-.636-.175" transform="translate(-1.937 -1.48)" fill="#444"/>
      <path id="Path_27280" data-name="Path 27280" d="M14.995,19.509a1.959,1.959,0,0,0,1.258.939,4.9,4.9,0,0,0,1.932.25,3.418,3.418,0,0,0,2.777-1.72c.2-.376-.372-.709-.57-.334a2.739,2.739,0,0,1-2.207,1.393,4.221,4.221,0,0,1-1.526-.157,1.535,1.535,0,0,1-1.094-.706c-.176-.385-.745-.051-.57.334" transform="translate(-1.804 -2.217)" fill="#444"/>
    </g>
  </g>
</svg>
