<svg id="Component_29_2" data-name="Component 29 – 2" xmlns="http://www.w3.org/2000/svg" xmlns:xlink="http://www.w3.org/1999/xlink" width="140" height="31" viewBox="0 0 140 31">
  <defs>
    <clipPath id="clip-path">
      <rect id="Rectangle_2124" data-name="Rectangle 2124" width="140" height="31" fill="none"/>
    </clipPath>
  </defs>
  <g id="Group_94255" data-name="Group 94255" transform="translate(0 0)" clip-path="url(#clip-path)">
    <path id="Fill_1" data-name="Fill 1" d="M24.013,11.809A11.909,11.909,0,0,1,12.006,23.618,11.909,11.909,0,0,1,0,11.809,11.909,11.909,0,0,1,12.006,0,11.909,11.909,0,0,1,24.013,11.809" transform="translate(3.613 3.917)" fill="#fff"/>
    <path id="Path_7316" data-name="Path 7316" d="M25.625,11.926c-.581-.059-1.552-.159-2.838-.2a13.4,13.4,0,0,0-2.316.088c.019.05.041.1.059.148A17.666,17.666,0,0,1,21.661,16.5a5.768,5.768,0,0,1-2.452,5.579,7.4,7.4,0,0,1-6.292.623c-3.844-1.4-4.566-5.788-3.093-9.173.45-.96,1-1.879,1.53-2.8.612-1.066,1.184-2.529,2.334-3.152a3.953,3.953,0,0,1,3.7.016,6.719,6.719,0,0,1,2.353,2.633A25.167,25.167,0,0,1,26,11.558l0,0c.311.121.439.173.405.306s-.089.131-.781.059M15.759,0h0A15.677,15.677,0,0,0,0,15.5,15.677,15.677,0,0,0,15.759,31,15.677,15.677,0,0,0,31.518,15.5,15.677,15.677,0,0,0,15.759,0" transform="translate(0 0)" fill="#00b261"/>
    <path id="Path_7317" data-name="Path 7317" d="M17.227,10.132a.429.429,0,0,0-.3.517.434.434,0,0,0,.434.417.427.427,0,0,0,.3-.517.432.432,0,0,0-.433-.417" transform="translate(-0.153 -0.257)" fill="#00b261"/>
    <path id="Path_7318" data-name="Path 7318" d="M48.984,4.589v3.54h1.939l-5.916,5.829V8.129h2.545V4.589H38.621v3.6h2.327V21.466H38.621v3.6h8.931v-3.6H45.008V18.638l2.616-2.5L53.2,25.067h5.334v-3.6H55.715L50.7,13.447,56.17,8.189h2.366v-3.6Zm12.252,6.666v3.329h2.079V21.8H61.236v3.268h8.032V21.8H67.251V11.255Z" transform="translate(-0.35 -0.116)"/>
    <path id="Path_7319" data-name="Path 7319" d="M85.472,11.428V14.7h2.146l-1.542,5.393-2.931-7.3h-2.7l-2.962,7.3-1.542-5.4h1.836V11.428H70.237v3.328h2.056l3.351,11h2.782l3.2-7.673,3.2,7.673H87.6l3.351-11h2.055V11.428Z" transform="translate(-0.636 -0.29)"/>
    <path id="Path_7320" data-name="Path 7320" d="M116.017,25.42c-6.521,0-11.075-4.36-11.075-10.6,0-6.044,4.735-10.6,11.012-10.6,5.058,0,8.189,2.641,8.189,5.088a2.539,2.539,0,0,1-2.511,2.725A2.4,2.4,0,0,1,119,9.606a2.905,2.905,0,0,1,.155-.935,6.09,6.09,0,0,0-3.29-.734,6.571,6.571,0,0,0-6.736,6.85,6.675,6.675,0,0,0,6.891,6.91,7.592,7.592,0,0,0,5.661-2.549l.2-.212,2.709,2.752-.172.186a11.4,11.4,0,0,1-8.4,3.544" transform="translate(-0.951 -0.107)"/>
    <path id="Path_7321" data-name="Path 7321" d="M103.972,25.239H95.94V21.971h2.078V14.756H95.94V11.427h6.015V21.971h2.017Z" transform="translate(-0.869 -0.29)"/>
    <path id="Path_7322" data-name="Path 7322" d="M133.636,11.179a7.172,7.172,0,0,0-7.506,7.148c0,4.142,3.157,7.148,7.506,7.148a7.172,7.172,0,0,0,7.506-7.148c0-4.142-3.157-7.148-7.506-7.148m0,11c-2.048,0-3.477-1.584-3.477-3.85s1.429-3.85,3.477-3.85,3.478,1.583,3.478,3.85-1.431,3.85-3.478,3.85" transform="translate(-1.143 -0.283)"/>
    <path id="Path_7323" data-name="Path 7323" d="M99.009,8.862a2.5,2.5,0,0,1-1.644-1.356,2.523,2.523,0,0,1,4.614-2.037,2.5,2.5,0,0,1-2.97,3.393" transform="translate(-0.88 -0.102)"/>
    <path id="Path_7324" data-name="Path 7324" d="M65.144,8.94a2.485,2.485,0,0,1-2.511-2.452,2.548,2.548,0,0,1,2.573-2.451,2.484,2.484,0,0,1,2.51,2.451A2.548,2.548,0,0,1,65.144,8.94" transform="translate(-0.567 -0.102)"/>
    <path id="Path_7325" data-name="Path 7325" d="M99.009,8.862a2.494,2.494,0,0,1-1.644-1.356,2.523,2.523,0,0,1,4.615-2.038,2.5,2.5,0,0,1-2.971,3.394" transform="translate(-0.88 -0.102)" fill="#00b261"/>
    <path id="Path_7326" data-name="Path 7326" d="M65.144,8.939a2.485,2.485,0,0,1-2.511-2.452,2.549,2.549,0,0,1,2.572-2.452,2.486,2.486,0,0,1,2.512,2.452,2.549,2.549,0,0,1-2.573,2.452" transform="translate(-0.567 -0.102)" fill="#00b261"/>
  </g>
</svg>
