<svg id="Group_101341" data-name="Group 101341" xmlns="http://www.w3.org/2000/svg" width="28.922" height="36.194" viewBox="0 0 28.922 36.194">
  <g id="Group_101340" data-name="Group 101340" transform="translate(7.348 7.806)">
    <path id="Path_28142" data-name="Path 28142" d="M119.249,144.328a11.28,11.28,0,0,1,7.378-4.348,10.841,10.841,0,0,1,4.891.774,9.353,9.353,0,0,1,3.572,2.08,10.1,10.1,0,0,1,2.2,3.326,12.593,12.593,0,0,1,.659,1.726,6.556,6.556,0,0,1,.245,1.819,1.339,1.339,0,0,1-.124.533c.029.452.051.9.066,1.348a14.361,14.361,0,0,1-.4,2.42,9.312,9.312,0,0,1-1.578,3.149c.087.951.2,1.691.4,3.115.063.82.466,1.74.084,2.519a1.8,1.8,0,0,1-2.477.812,1.947,1.947,0,0,1-1.072.121,1.447,1.447,0,0,1-.168.142,2.361,2.361,0,0,1-2.829-.194,15.522,15.522,0,0,1-1.4-1.6c-.357-.4-.717-.8-1.075-1.2a10.541,10.541,0,0,1-2.285-.405,10.9,10.9,0,0,1-6.632-5.32A11.348,11.348,0,0,1,119.249,144.328Z" transform="translate(-117.056 -139.823)" fill="#f7cf1c"/>
    <path id="Path_28143" data-name="Path 28143" d="M119.309,144a9.951,9.951,0,0,1,5.091-3.683,12.449,12.449,0,0,1,6.7-.221,9.615,9.615,0,0,1,6.164,5.228A11.232,11.232,0,0,1,137,156.5c-.19.395-.173.314-.148.622a40.532,40.532,0,0,1,.581,4.294c-.025.5-.92.5-.947,0-.087-1.471-.565-3.253-.744-4.475.009-.6.363-.881.449-1.191a10,10,0,0,0,.777-8.419,11.508,11.508,0,0,0-2.009-3.835,8.547,8.547,0,0,0-6.049-2.881,9.837,9.837,0,0,0-6.619,1.918c-2.849,2.049-4.117,6.21-3.592,9.509.365,2.065,1.574,4.956,3.364,6.266,1.083,1.007,3.447,1.556,4.6,1.7a11.263,11.263,0,0,1,1.593.177,3.125,3.125,0,0,1,.618.476,21.55,21.55,0,0,1,1.836,1.992,4.49,4.49,0,0,1,.774,1.039c.072.52-.757.663-1.018.281-.981-1.15-1.727-1.907-2.488-2.681-.05-.041-.216-.19-.3-.272a14.6,14.6,0,0,1-3.646-.727,8.4,8.4,0,0,1-3.929-2.549,13.45,13.45,0,0,1-2.722-6.722C117.1,148.573,117.991,146.3,119.309,144Z" transform="translate(-117.332 -139.731)" fill="#f7cf1c"/>
  </g>
  <path id="Path_28144" data-name="Path 28144" d="M118.368,155.447a3.609,3.609,0,0,1,2.168.361,7.527,7.527,0,0,1,2.814,2.884A7.143,7.143,0,0,0,125.04,158a6.425,6.425,0,0,1-.172-2.954,2.144,2.144,0,0,1,1.787-1.613c.948-.066,1.283,1.064,1.3,1.832a3.664,3.664,0,0,1-.9,2.243,5.753,5.753,0,0,1-1.105,1.082c.054.206.111.408.172.6.74,2.289,1.511,4.571,2.459,6.783.129.306.4.914.624,1.463.025.072.06.146.091.221l.262-.083a6.752,6.752,0,0,1,1.322-.34,3.573,3.573,0,0,1,1.1.048.933.933,0,0,1,.538.419,1.5,1.5,0,0,1,.228.791,1.815,1.815,0,0,1-.1.5c-.051.115-.24.463-.082.163a1.664,1.664,0,0,1-.473.592c1.222.426.876,1.558-.014,2.09a8.569,8.569,0,0,1-1.067.552c1.355,1.375-1.86,2.182-2.623,1.689a.92.92,0,0,1-.515-.655,4,4,0,0,1-1.593.117c-.712-.225-.8-.561-.886-.784a.713.713,0,0,1,0-.33c-.007.044-.021.122-.014.08,0-.023.009-.054.016-.086,0-.007,0-.014,0-.021s0,.006,0,.016c.023-.125.052-.26.013-.029a.766.766,0,0,1,.141-.389,1.645,1.645,0,0,1-1.707-.474A1.1,1.1,0,0,1,124.11,170a5.676,5.676,0,0,1,1.178-.708c.157-.1.331-.208.549-.336.417-.191.816-.354,1.22-.5a1.685,1.685,0,0,0-.093-.273c-.206-.534-.623-1.709-.99-2.569a37.741,37.741,0,0,0-3.205-5.78c-2.086.382-4.48.068-5.576-1.481C116.443,157.112,116.817,155.693,118.368,155.447Zm8.376-.71c-.019-.065-.044-.13-.069-.193-.018-.035-.042-.08-.066-.119-.043.012-.084.025-.109.033-.116.057-.275.155-.311.175l-.027.02-.011.009a1.192,1.192,0,0,0-.376.482,2.146,2.146,0,0,0-.211.6,7.017,7.017,0,0,0,.141,1.775A2.845,2.845,0,0,0,126.744,154.737Zm1.183,13.441a6.742,6.742,0,0,1,.648-.277,82.334,82.334,0,0,1-2.973-7.895c-.1-.329-.2-.68-.307-1.042a11.41,11.41,0,0,1-1.312.565l-.064.02A36.308,36.308,0,0,1,127.927,168.179Zm-8.326-9.456a6.7,6.7,0,0,0,2.528.2c-.132-.181-.261-.351-.378-.5-.927-1.214-2.327-2.093-3.451-1.674l-.05.029-.02.018-.039.063a1.255,1.255,0,0,0-.046.13c0,.027-.008.053-.008.08C118.12,157.566,118.435,158.234,119.6,158.723Z" transform="translate(-103.954 -138.033)" fill="#2d2d2d"/>
  <g id="Group_101341-2" data-name="Group 101341" transform="translate(0 0)">
    <path id="Path_28145" data-name="Path 28145" d="M152.235,135.088c.324,0,.541.278.781.458,1.048.955,2.136,1.909,3.151,2.877.18.471-.564.781-.889.483a33.538,33.538,0,0,1-3.591-3.205C151.541,135.374,151.931,135.08,152.235,135.088Z" transform="translate(-146.575 -129.855)" fill="#f7cf1c"/>
    <path id="Path_28146" data-name="Path 28146" d="M157.77,149.683c-.267-1.518,4.369.055,5.117.265.347.158.839.166,1.072.487.179.417-.342.812-.733.716a28.543,28.543,0,0,0-3.233-.9c-.609-.126-1.224-.216-1.841-.288-.162-.018.03,0,.055,0A.417.417,0,0,1,157.77,149.683Z" transform="translate(-157.759 -136.071)" fill="#f7cf1c"/>
    <path id="Path_28147" data-name="Path 28147" d="M159.679,164c.375-.478,1.084-.486,1.628-.663a5.378,5.378,0,0,1,2.274-.164c.534.325-.048,1.078-.548.989a12.12,12.12,0,0,0-2.953.583A.464.464,0,0,1,159.679,164Z" transform="translate(-158.569 -142.343)" fill="#f7cf1c"/>
    <path id="Path_28148" data-name="Path 28148" d="M130.536,127.228c-.221.237-.161.586-.192.885-.006,1.417-.04,2.864-.015,4.266.226.451.956.114.957-.327a33.482,33.482,0,0,0,.071-4.813C131.216,126.911,130.735,127,130.536,127.228Z" transform="translate(-109.974 -126.26)" fill="#f7cf1c"/>
    <path id="Path_28149" data-name="Path 28149" d="M142.876,125.664c-1.5-.354-.2,4.365-.029,5.124.137.356.117.847.424,1.1.406.2.83-.295.757-.69a28.545,28.545,0,0,1-.712-3.279c-.091-.615-.145-1.235-.181-1.855-.009-.162,0,.03,0,.055A.418.418,0,0,0,142.876,125.664Z" transform="translate(-129.157 -125.645)" fill="#f7cf1c"/>
    <path id="Path_28150" data-name="Path 28150" d="M120.252,133.792c-.586.159-.871.809-1.246,1.24a5.377,5.377,0,0,0-1.039,2.029c.09.618,1.011.376,1.125-.118a12.1,12.1,0,0,1,1.69-2.491A.464.464,0,0,0,120.252,133.792Z" transform="translate(-92.556 -129.271)" fill="#f7cf1c"/>
  </g>
</svg>
