<svg height="32.632" viewBox="0 0 28.438 32.632" width="28.438" xmlns="http://www.w3.org/2000/svg"><g fill="#f7cf1c"><path d="m49.891 13.009a9.371 9.371 0 0 1 5.64-.864l-.041-.054q.472-4.67.944-9.34a34.3 34.3 0 0 1 1.973 9.734 27.705 27.705 0 0 1 4.2.082 11.584 11.584 0 0 1 -4.06 2.542s-.654 4.47-.848 6.507a37.211 37.211 0 0 1 -1.67-6.516s-4.3-1.4-6.138-2.087" transform="translate(-34.846 -2.087)"/><path d="m50.3 13.659a8.817 8.817 0 0 1 5.117-.8c.506.075 1.163-.462.767-1 .08.109.133-.507.149-.673.037-.367.074-.732.111-1.1q.125-1.236.25-2.473l.485-4.808-1.333.18a34.461 34.461 0 0 1 1.954 9.563.688.688 0 0 0 .679.68 20.2 20.2 0 0 1 4.025.058q-.149-.568-.3-1.135a11.211 11.211 0 0 1 -3.761 2.367.681.681 0 0 0 -.474.474c-.326 2.223-.656 4.452-.873 6.688l1.334-.18a38.475 38.475 0 0 1 -1.675-6.521.674.674 0 0 0 -.474-.474c-2.054-.668-4.115-1.332-6.139-2.087-.819-.307-1.174 1.007-.361 1.31 2.024.755 4.085 1.42 6.139 2.087l-.475-.475a38.515 38.515 0 0 0 1.675 6.522.683.683 0 0 0 1.334-.182c.206-2.115.516-4.223.824-6.327l-.475.475a12.907 12.907 0 0 0 4.362-2.717.684.684 0 0 0 -.3-1.135 21.741 21.741 0 0 0 -4.386-.106l.679.679a35.773 35.773 0 0 0 -2-9.914.683.683 0 0 0 -1.334.18l-.528 5.22-.249 2.473c-.055.547-.38 1.577-.034 2.045l.767-1a10.428 10.428 0 0 0 -6.163.932c-.787.38-.1 1.552.685 1.173" transform="translate(-34.913 -2.152)"/><path d="m46.083 27.341a5.856 5.856 0 0 1 -2.882-.675 8.718 8.718 0 0 1 2.851-1.366l.071.13a7.955 7.955 0 0 1 1.084-3.657q.314 1.837.627 3.675s1.6.64 2.313.825a4.752 4.752 0 0 1 -2.187 1.392l.029.027a16.11 16.11 0 0 1 -.54 4.319c-.353-1.435-1.365-4.674-1.365-4.674" transform="translate(-35.564 -.046)"/><path d="m46.148 26.726a5.376 5.376 0 0 1 -2.539-.582v1.173a8.608 8.608 0 0 1 2.691-1.293l-.767-.312c.024.043.048.086.071.13a.685.685 0 0 0 1.266-.342 7.481 7.481 0 0 1 .992-3.315l-1.241-.163.4 2.322c.11.646.054 1.529.722 1.835a14.951 14.951 0 0 0 2.3.818q-.151-.568-.3-1.136a4.269 4.269 0 0 1 -1.887 1.218.685.685 0 0 0 -.3 1.135l.029.027q-.1-.239-.2-.481a16.057 16.057 0 0 1 -.517 4.139h1.31c-.392-1.573-.881-3.126-1.364-4.674-.26-.832-1.572-.476-1.311.361.484 1.548.973 3.1 1.365 4.674a.685.685 0 0 0 1.31 0 17.715 17.715 0 0 0 .484-2.7q.066-.661.08-1.327c.007-.344.058-.726-.227-.981l-.3 1.135a5.647 5.647 0 0 0 2.486-1.567.686.686 0 0 0 -.3-1.135 20.748 20.748 0 0 1 -2.313-.825c.158.158.317.316.474.474l-.626-3.675a.686.686 0 0 0 -1.241-.163 9 9 0 0 0 -1.178 4l1.267-.343c-.024-.043-.048-.086-.071-.13a.688.688 0 0 0 -.767-.312 9.693 9.693 0 0 0 -3.013 1.429.687.687 0 0 0 0 1.173 6.862 6.862 0 0 0 3.224.768.68.68 0 0 0 0-1.359" transform="translate(-35.629 -.111)"/><path d="m40.162 3.77.877 4.205a19.905 19.905 0 0 1 1.993.479l-2.038 1s-.667 1.871-.864 2.613l-.751-2.647s-1.8-.531-2.468-.8a14.928 14.928 0 0 1 2.289-1.051v-.038l.983-4.1" transform="translate(-36.238 -2.014)"/><path d="m39.573 4.014.877 4.206a.662.662 0 0 0 .474.475 14.08 14.08 0 0 1 1.993.479l-.162-1.241c-.629.308-1.276.595-1.892.927a1.183 1.183 0 0 0 -.571.8c-.266.758-.54 1.518-.751 2.293h1.31l-.611-2.153c-.116-.411-.168-.809-.615-.971-.062-.022-.126-.038-.188-.055-.764-.229-1.538-.451-2.28-.743l.163 1.241a14.631 14.631 0 0 1 2.128-.982.7.7 0 0 0 .5-.656 3.57 3.57 0 0 1 .189-.758l.256-1.065.512-2.13c.2-.849-1.105-1.212-1.31-.361q-.276 1.148-.55 2.294l-.276 1.147a3.2 3.2 0 0 0 -.179.874l.5-.654a16.949 16.949 0 0 0 -2.456 1.119.689.689 0 0 0 .166 1.239c.8.317 1.641.555 2.468.8l-.475-.474.751 2.647a.685.685 0 0 0 1.31 0c.24-.884.557-1.751.864-2.613l-.318.401 2.038-1a.687.687 0 0 0 -.162-1.241 14.1 14.1 0 0 0 -1.994-.479l.475.474-.877-4.205c-.178-.856-1.488-.494-1.31.361" transform="translate(-36.304 -2.079)"/></g></svg>