<svg xmlns="http://www.w3.org/2000/svg" width="22.216" height="22.008" viewBox="0 0 22.216 22.008">
  <g id="subjects" transform="translate(-0.197 -0.492)">
    <g id="Group_105849" data-name="Group 105849">
      <path id="Path_28450" data-name="Path 28450" d="M21.5,15.5a.632.632,0,0,0-.8-.4.1.1,0,0,0-.1.1h-.1c-.1,0-.2,0-.2.1h-.2a.9.9,0,0,0-.5.1c0-.1-.1-.2-.1-.3a3.114,3.114,0,0,0-.9-.7l-.2-.2a.1.1,0,0,1-.1-.1c0-.1.1-.2.1-.3l.1-.1a1.421,1.421,0,0,0,.2-.6.1.1,0,0,1,.1-.1v-.4a.68.68,0,0,0-.8-.4.778.778,0,0,0-.8.2c-.1.2-.3.4-.4.6a.6.6,0,0,0-.4-.1h-.2c-.1.1-.3.2-.3.3v-.1c.1-.1.2-.2.3-.2a3.178,3.178,0,0,0-1.4.2c-.2.1-.3.1-.5.2h-.1c-.1,0-.1,0-.2.1l-.1-.1a.831.831,0,0,0-.7-.3H13a.634.634,0,0,0-.5.6,1.489,1.489,0,0,0,.4.9c.1.1.1.2.2.3v.1a.616.616,0,0,0,.1.7v.2c-.1.1-.2.2-.2.3-.1.2-.1.5-.2.7h-.1a3.552,3.552,0,0,0-.9.4.8.8,0,0,0-.3,1.1.1.1,0,0,0,.1.1,1.4,1.4,0,0,0,.9.3H13a4,4,0,0,0,1,1.2v.2c0,.4-.1.7-.1,1.1a.55.55,0,0,0,.3.5c.7.4,1.2-.2,1.5-.8a2.648,2.648,0,0,0,2.3-.2,1.777,1.777,0,0,0,1,.4,1.136,1.136,0,0,0,.8-.3,1.071,1.071,0,0,0-.1-1.4,4.383,4.383,0,0,0,.7-1.9v-.8c.1,0,.2-.1.3-.1h.2c.4,0,.6-.3.6-.7.1.2.1.2.1.1Zm-2.8,1.6v.3c0,.1,0,.2-.1.2v.2c0,.1-.1.2-.2.3s-.1.2-.2.3l-.1.1c-.1.2-.3.3-.4.5-.1.1-.1.2-.2.3-.3,0-.6.1-.9.1h-.7c-.1,0-.1-.1-.2-.1a.637.637,0,0,0-.6,0c-.3-.4-.5-.9-.8-1.3l-.3-.3a.6.6,0,0,0-.1-.4v-.4c0-.1.1-.2.1-.4.2,0,.1-.1.2-.1.3-.3.5-.6.8-.9l.2-.2h0l.2-.2h1a.758.758,0,0,0,.4.2h.5c.1,0,.1-.1.2-.1.1.1.2.3.3.4s.1.2.2.3l.1.1.6.9C18.7,17,18.7,17,18.7,17.1Z" fill="#00b261"/>
      <g id="Group_105848" data-name="Group 105848">
        <path id="Path_28451" data-name="Path 28451" d="M22.1,16.7a4.954,4.954,0,0,0-.2-1.7c-.1-.2-.1-.3-.2-.5-.1-.1-.2-.2-.4-.1-.1,0-.1.1-.1.2H21c-.3.1-.5.1-.8.2-.1,0-.1,0-.2.1-.1-.2-.2-.3-.3-.5l-.5-.5c-.1-.1-.2-.1-.3-.2,0-.2.1-.3.1-.5l.1-.1V13c0-.1.1-.2.1-.3s.1-.2.2-.3,0-.3-.1-.4c-.4-.2-.9-.4-1.4-.6-.1,0-.3-.1-.4-.1s-.2,0-.2.1H17a2.361,2.361,0,0,0-.6.9.367.367,0,0,0-.1.3v.1a2.92,2.92,0,0,0-.9-.2,2.92,2.92,0,0,0-.9.2c-.1.1-.2.1-.2.2l-.7-.4-.2-.1c-.1-.1-.1,0-.2,0a.187.187,0,0,0-.3,0l-.2.2h-.1c-.2.3-.5.6-.7.9-.1.1-.1.2-.2.3h.1c0,.1.1.2.1.3h.2c.1.1.2.1.3.2h0l.2.2h0a4.136,4.136,0,0,0-.5,1.9v.2c-.1,0-.2.1-.3.1s-.2.1-.3.2c-.1,0-.2.1-.3.1s-.1.2-.1.3h0l-.1.1c-.1-.1-.1,0-.1,0a.749.749,0,0,0,.1.5,1.268,1.268,0,0,0,.1.6c0,.1,0,.1.1.1a.349.349,0,0,0-.1.2.1.1,0,0,1,.1.1h0a.319.319,0,0,0,.3.3h1.2a2.177,2.177,0,0,0,.5.8,1,1,0,0,0,.5.4h0a.1.1,0,0,0-.1.1l-.3.5-.1.1.2.1-.1.1c0,.1,0,.2.1.2v.2c-.2.1-.1.2.1.2h.1c0,.1,0,.1.1.2a3.582,3.582,0,0,0,1.1.4h.6c.1,0,.2-.1.3-.1l.4-.7a2.459,2.459,0,0,0,1.7.1c.2-.1.3-.2.5-.2h0a.349.349,0,0,1,.2.1h-.1a.349.349,0,0,1,.2.1l.1.1h.1a.1.1,0,0,1,.1.1h.2c.1.1.3,0,.4-.1a.187.187,0,0,0,.3,0l.7-.6.2-.2a.187.187,0,0,0,0-.3.349.349,0,0,0,.1-.2h0c.1-.1.2-.2.1-.4-.2-.2-.3-.4-.5-.6a.52.52,0,0,0,.2-.4,4.253,4.253,0,0,0,.2-1.1v-.7l.5-.1.3-.1h.3c.1,0,.2-.2.2-.3s0-.1-.1-.1A.1.1,0,0,0,22.1,16.7ZM13,14.2h0m-.1-.1-.2-.2V14l-.1-.1c.1-.2.3-.4.4-.6a.349.349,0,0,1,.1-.2V13h0l.7.5.2.1c.1.1.3,0,.4-.1h.1a.1.1,0,0,0,.1-.1h.1c.1,0,.3-.1.4-.1h1.4c.1.1.3,0,.4-.1l.5-1.1V12l.4.2.6.3h.1a.1.1,0,0,0,.1.1.367.367,0,0,1-.1.3.6.6,0,0,0-.1.4c0,.1-.1.2-.1.3a.367.367,0,0,0,.1.3c0,.1,0,.1.1.2,0,.1,0,.1.1.2.1,0,.2.1.3.2H19l.1.1.2.2V15l.1.1c.1.1.1.2.2.3s.2.2.4.1a.31.31,0,0,0,.2.1,3.553,3.553,0,0,1,1-.2h.1l.2,1v.2c-.2.1-.5.1-.7.2-.1,0-.2,0-.2.1h0a.1.1,0,0,0-.1.1l-.1.1-.2.1c-.1,0-.2.2-.2.3s.1.1.2.2v.5h0v.1c0,.2-.1.3-.1.5,0,.1,0,.1-.1.2h0v.1c-.1.1-.1.2-.2.3h0a.349.349,0,0,0-.1.2h0V20a4.234,4.234,0,0,0,.5.7,5.5,5.5,0,0,0-.9.7h0l-.6-.3c-.1,0-.1-.1-.2-.1a.31.31,0,0,0-.2.1c-.1,0-.1-.1-.2-.1s-.3.1-.4.1H16.6c-.2,0-.3-.1-.4-.1s-.3,0-.3.2h-.1c-.2-.1-.4,0-.4.2-.1.1-.1.2-.2.3h0a.1.1,0,0,1-.1.1l-.1.3-.2-.1h0l-.7-.3-.3-.1a.367.367,0,0,1,.1-.3l.1-.1.1-.1L14,21h0c.1-.1,0-.2,0-.3.1,0,.2,0,.2-.2a.192.192,0,0,0-.1-.3H14l-.1-.1h0l-.1-.1-.4-.5-.2-.3c0-.2-.2-.2-.3-.2h0c0-.1-.1-.2-.3-.2l-1-.1v-.1h0v-.1a.367.367,0,0,0-.1-.3v-.1h0v-.2a.31.31,0,0,0-.1-.2h.1c.1,0,.1-.1.2-.1h.1a.494.494,0,0,1,.3-.1h.3c.1,0,.1-.1.2-.1v-.1a.349.349,0,0,0,.1-.2v-.3h0a.6.6,0,0,1,.1-.4c.1-.3.1-.5.2-.8v-.1c0-.1.1-.1.1-.2.1-.1,0-.2,0-.3a.349.349,0,0,0,.2-.1l.1-.1v-.2a.215.215,0,0,0-.2-.2l-.1-.1" fill="#231f20"/>
        <path id="Path_28452" data-name="Path 28452" d="M17.1,15.1c-.2-.1-.4-.1-.6-.2,0-.1-.1-.1-.2-.1a1.658,1.658,0,0,0-1.6.6,1.756,1.756,0,0,0-.4.5c0,.1-.1.1-.1.2a1.637,1.637,0,0,0-.2,1.2c0,.1.1.2.1.3v.1a2.384,2.384,0,0,0,.6,1.1,4.129,4.129,0,0,0,1.1.7h0c.1,0,.1.1.2.1a1.986,1.986,0,0,0,1.1.1,2.361,2.361,0,0,0,.9-.6c.1-.1.1-.2.2-.3h0a2.281,2.281,0,0,0,.6-1.2,1.8,1.8,0,0,0-.4-1.6A3.805,3.805,0,0,0,17.1,15.1Zm0,.6.1.1c.1.1.2.1.3.2.1,0,.1.1.2.1l.1.1.3.3c-.1.1-.2.3-.1.4a.1.1,0,0,0,.1.1h0v.2h0v.2h0v.1c0,.1,0,.2-.1.2v.1h0v.1c-.1.1-.1.3-.2.4,0,.1-.1.1-.1.2a.1.1,0,0,1-.1.1c0,.1-.1.1-.2.2H16c-.1,0-.1,0-.2-.1-.1,0-.1-.1-.2-.1h-.1l-.1-.1-.2-.2c0-.1-.1-.1-.1-.2A.1.1,0,0,0,15,18a.1.1,0,0,0-.1-.1H15c0-.1-.1-.2-.1-.3a.367.367,0,0,0-.1-.3h0v-.5h0v-.2a.367.367,0,0,1,.1-.3v-.1l.4-.4h0l.1-.1.1-.1h1c.2,0,.3.1.6.1C17,15.7,17.1,15.8,17.1,15.7Z" fill="#231f20"/>
      </g>
    </g>
    <g id="Group_105851" data-name="Group 105851">
      <path id="Path_28453" data-name="Path 28453" d="M19.3,6.8a2.01,2.01,0,0,0,.4-.8c0-.1.1-.2.1-.3,0-.2.1-.4.1-.6a1.7,1.7,0,0,0-.1-.7A3.605,3.605,0,0,0,17.7,1a3.928,3.928,0,0,0-4.6.5c-.1.1-.3.2-.4.4l-.2.2a1.905,1.905,0,0,0-.5,1h0l-.5,1.5c.1.5,0,1,.1,1.6a4.023,4.023,0,0,0,5.6,2.6,7.1,7.1,0,0,0,1.4-1c.2-.2.3-.4.5-.6A.758.758,0,0,1,19.3,6.8Z" fill="#f05824"/>
      <g id="Group_105850" data-name="Group 105850">
        <path id="Path_28454" data-name="Path 28454" d="M22.2,7a4.754,4.754,0,0,0-2.3-1.9c0,.2-.1.4-.1.6a4.455,4.455,0,0,1,1.8,1.8c.3.7.1,1.1-.6,1a13.031,13.031,0,0,1-3.9-.9L15.3,7a23.291,23.291,0,0,1-3.4-2A5.53,5.53,0,0,1,9.7,2.4q-.45-1.2.9-1.2a3.139,3.139,0,0,1,2.1.7c.1-.1.3-.2.4-.4a7.255,7.255,0,0,0-.9-.5,3.553,3.553,0,0,0-1-.2A4.819,4.819,0,0,0,10,.8a1,1,0,0,0-1,.6c-.2.4,0,1,0,1.3a2.725,2.725,0,0,0,.6,1.2,9.428,9.428,0,0,0,1,1l1.5,1.2a17.51,17.51,0,0,0,5.2,2.4h.2a7.053,7.053,0,0,0,3.7.6A1.36,1.36,0,0,0,22.2,7Z" fill="#c5ecf4"/>
        <path id="Path_28455" data-name="Path 28455" d="M12.4,2.2c-1,0-1.4.6-.8,1.5v.2l.5.5a20.717,20.717,0,0,0,6.7,3.2.1.1,0,0,0,.1-.1.1.1,0,0,0,.1-.1c.1,0,.1.1.3.1.4.2,1.1.3,1.3-.1.3-.4-.2-.7-.5-.9-.1-.1-.3-.2-.4-.3a2.044,2.044,0,0,1-.5.9,18.256,18.256,0,0,1-7.3-3.8A2.812,2.812,0,0,1,12.4,2.2Z" fill="#c5ecf4"/>
      </g>
    </g>
    <g id="Group_105852" data-name="Group 105852">
      <path id="Path_28456" data-name="Path 28456" d="M4.6,3.5a5.151,5.151,0,0,1,3,1.3c1,.8,1.1,2,1.2,3.2a6.279,6.279,0,0,1-.3,1.9,2.331,2.331,0,0,1-1.4,1.5c-.3.1-.5.2-.4.6v.1a2.059,2.059,0,0,0-1.5.3H5.1c-.1-.3-.3-.3-.5-.3A4.507,4.507,0,0,1,.2,7.4,4.376,4.376,0,0,1,2.2,4,7.192,7.192,0,0,1,4.6,3.5Z" fill="#f05824"/>
      <path id="Path_28457" data-name="Path 28457" d="M5.2,12.4h0c.1.5.3.6.8.4.2-.1.4-.1.6-.2.4,0,.4-.3.2-.5V12c.7.3.8.5.3.9-.2.1-.2.2-.1.3a41.263,41.263,0,0,1,2.4,7c0,.1.1.3.1.4,0,.5.2,1-.4,1.3a1.479,1.479,0,0,1-1.9-.4,2.947,2.947,0,0,1-.5-1.3,50.131,50.131,0,0,1-1-6.6.4.4,0,0,0-.2-.4C4.8,13.1,5,12.7,5.2,12.4Z" fill="#3b6ac2"/>
      <path id="Path_28458" data-name="Path 28458" d="M7.9,6.7c.1.3.1.5.2.8,0,.2.1.4.1.6A2.638,2.638,0,0,1,6.5,11a3.5,3.5,0,0,1-3.8-.3A3.833,3.833,0,0,1,1.4,6.3,3.2,3.2,0,0,1,5.2,4.4a4.351,4.351,0,0,1,1.9,1A3.528,3.528,0,0,1,7.9,6.7Z" fill="#c5ecf4"/>
      <path id="Path_28459" data-name="Path 28459" d="M6.8,12.1c.2.2.2.5-.2.5a1.421,1.421,0,0,0-.6.2c-.5.2-.7,0-.7-.4A1.569,1.569,0,0,1,6.8,12.1Z" fill="#070807"/>
      <path id="Path_28460" data-name="Path 28460" d="M4.3,5.1a1.087,1.087,0,0,1,.5.1,13.355,13.355,0,0,1,1.8.7c.2.1.4.2.3.5-.1.2-.2.4-.5.3A7.2,7.2,0,0,1,4,5.7c-.2,0-.2-.2-.1-.4C3.9,5.2,4.1,5.1,4.3,5.1Z" fill="#fdfdfd"/>
    </g>
  </g>
</svg>